<mxfile host="Electron" agent="Mozilla/5.0 (X11; Linux x86_64) AppleWebKit/537.36 (KHTML, like Gecko) draw.io/26.1.1 Chrome/132.0.6834.210 Electron/34.3.3 Safari/537.36" version="26.1.1">
  <diagram name="Page-1" id="y5zOizTaZlXLqjyvv-7B">
    <mxGraphModel dx="953" dy="546" grid="1" gridSize="10" guides="1" tooltips="1" connect="1" arrows="1" fold="1" page="1" pageScale="1" pageWidth="827" pageHeight="1169" math="0" shadow="0">
      <root>
        <mxCell id="0" />
        <mxCell id="1" parent="0" />
        <mxCell id="5KC5ZDpaT7RHDeXgYZa--17" value="" style="edgeStyle=orthogonalEdgeStyle;rounded=0;orthogonalLoop=1;jettySize=auto;html=1;" edge="1" parent="1" source="5KC5ZDpaT7RHDeXgYZa--15" target="5KC5ZDpaT7RHDeXgYZa--16">
          <mxGeometry relative="1" as="geometry" />
        </mxCell>
        <mxCell id="5KC5ZDpaT7RHDeXgYZa--15" value="Обработка элементов начального корпуса" style="rounded=0;whiteSpace=wrap;html=1;" vertex="1" parent="1">
          <mxGeometry x="90" y="60" width="180" height="40" as="geometry" />
        </mxCell>
        <mxCell id="5KC5ZDpaT7RHDeXgYZa--19" value="" style="edgeStyle=orthogonalEdgeStyle;rounded=0;orthogonalLoop=1;jettySize=auto;html=1;" edge="1" parent="1" source="5KC5ZDpaT7RHDeXgYZa--16" target="5KC5ZDpaT7RHDeXgYZa--18">
          <mxGeometry relative="1" as="geometry" />
        </mxCell>
        <mxCell id="5KC5ZDpaT7RHDeXgYZa--16" value="Оценка начального покрытия" style="whiteSpace=wrap;html=1;rounded=0;" vertex="1" parent="1">
          <mxGeometry x="90" y="120" width="180" height="40" as="geometry" />
        </mxCell>
        <mxCell id="5KC5ZDpaT7RHDeXgYZa--21" value="" style="edgeStyle=orthogonalEdgeStyle;rounded=0;orthogonalLoop=1;jettySize=auto;html=1;" edge="1" parent="1" source="5KC5ZDpaT7RHDeXgYZa--18" target="5KC5ZDpaT7RHDeXgYZa--20">
          <mxGeometry relative="1" as="geometry" />
        </mxCell>
        <mxCell id="5KC5ZDpaT7RHDeXgYZa--18" value="Мутация случайного элемента корпуса" style="whiteSpace=wrap;html=1;rounded=0;" vertex="1" parent="1">
          <mxGeometry x="90" y="180" width="180" height="50" as="geometry" />
        </mxCell>
        <mxCell id="5KC5ZDpaT7RHDeXgYZa--23" value="" style="edgeStyle=orthogonalEdgeStyle;rounded=0;orthogonalLoop=1;jettySize=auto;html=1;" edge="1" parent="1" source="5KC5ZDpaT7RHDeXgYZa--20" target="5KC5ZDpaT7RHDeXgYZa--22">
          <mxGeometry relative="1" as="geometry" />
        </mxCell>
        <mxCell id="5KC5ZDpaT7RHDeXgYZa--20" value="Передача в целевую функцию" style="whiteSpace=wrap;html=1;rounded=0;" vertex="1" parent="1">
          <mxGeometry x="90" y="250" width="180" height="40" as="geometry" />
        </mxCell>
        <mxCell id="5KC5ZDpaT7RHDeXgYZa--25" value="Да" style="edgeStyle=orthogonalEdgeStyle;rounded=0;orthogonalLoop=1;jettySize=auto;html=1;" edge="1" parent="1" source="5KC5ZDpaT7RHDeXgYZa--22" target="5KC5ZDpaT7RHDeXgYZa--24">
          <mxGeometry relative="1" as="geometry" />
        </mxCell>
        <mxCell id="5KC5ZDpaT7RHDeXgYZa--27" value="Нет" style="edgeStyle=orthogonalEdgeStyle;rounded=0;orthogonalLoop=1;jettySize=auto;html=1;" edge="1" parent="1" source="5KC5ZDpaT7RHDeXgYZa--22" target="5KC5ZDpaT7RHDeXgYZa--26">
          <mxGeometry relative="1" as="geometry" />
        </mxCell>
        <mxCell id="5KC5ZDpaT7RHDeXgYZa--22" value="Произошла ошибка?" style="rhombus;whiteSpace=wrap;html=1;" vertex="1" parent="1">
          <mxGeometry x="100" y="320" width="160" height="80" as="geometry" />
        </mxCell>
        <mxCell id="5KC5ZDpaT7RHDeXgYZa--36" value="" style="edgeStyle=orthogonalEdgeStyle;rounded=0;orthogonalLoop=1;jettySize=auto;html=1;" edge="1" parent="1" source="5KC5ZDpaT7RHDeXgYZa--24" target="5KC5ZDpaT7RHDeXgYZa--35">
          <mxGeometry relative="1" as="geometry" />
        </mxCell>
        <mxCell id="5KC5ZDpaT7RHDeXgYZa--24" value="Сохранить элемент, вызвавший ошибку" style="whiteSpace=wrap;html=1;spacingLeft=1;" vertex="1" parent="1">
          <mxGeometry x="90" y="450" width="180" height="40" as="geometry" />
        </mxCell>
        <mxCell id="5KC5ZDpaT7RHDeXgYZa--29" value="" style="edgeStyle=orthogonalEdgeStyle;rounded=0;orthogonalLoop=1;jettySize=auto;html=1;" edge="1" parent="1" source="5KC5ZDpaT7RHDeXgYZa--26" target="5KC5ZDpaT7RHDeXgYZa--28">
          <mxGeometry relative="1" as="geometry" />
        </mxCell>
        <mxCell id="5KC5ZDpaT7RHDeXgYZa--26" value="Оценка покрытия" style="whiteSpace=wrap;html=1;" vertex="1" parent="1">
          <mxGeometry x="310" y="342.5" width="140" height="35" as="geometry" />
        </mxCell>
        <mxCell id="5KC5ZDpaT7RHDeXgYZa--30" style="edgeStyle=orthogonalEdgeStyle;rounded=0;orthogonalLoop=1;jettySize=auto;html=1;exitX=0.5;exitY=0;exitDx=0;exitDy=0;entryX=1;entryY=0.5;entryDx=0;entryDy=0;" edge="1" parent="1" source="5KC5ZDpaT7RHDeXgYZa--28" target="5KC5ZDpaT7RHDeXgYZa--18">
          <mxGeometry relative="1" as="geometry" />
        </mxCell>
        <mxCell id="5KC5ZDpaT7RHDeXgYZa--31" value="Нет" style="edgeLabel;html=1;align=center;verticalAlign=middle;resizable=0;points=[];fillColor=none;" vertex="1" connectable="0" parent="5KC5ZDpaT7RHDeXgYZa--30">
          <mxGeometry x="0.0615" y="2" relative="1" as="geometry">
            <mxPoint x="97" y="63" as="offset" />
          </mxGeometry>
        </mxCell>
        <mxCell id="5KC5ZDpaT7RHDeXgYZa--33" value="Да" style="edgeStyle=orthogonalEdgeStyle;rounded=0;orthogonalLoop=1;jettySize=auto;html=1;exitX=1;exitY=0.5;exitDx=0;exitDy=0;entryX=0;entryY=0.5;entryDx=0;entryDy=0;" edge="1" parent="1" source="5KC5ZDpaT7RHDeXgYZa--28" target="5KC5ZDpaT7RHDeXgYZa--32">
          <mxGeometry relative="1" as="geometry" />
        </mxCell>
        <mxCell id="5KC5ZDpaT7RHDeXgYZa--28" value="Увеличилось?" style="rhombus;whiteSpace=wrap;html=1;" vertex="1" parent="1">
          <mxGeometry x="480" y="320" width="150" height="80" as="geometry" />
        </mxCell>
        <mxCell id="5KC5ZDpaT7RHDeXgYZa--34" style="edgeStyle=orthogonalEdgeStyle;rounded=0;orthogonalLoop=1;jettySize=auto;html=1;exitX=0.5;exitY=0;exitDx=0;exitDy=0;entryX=1;entryY=0.5;entryDx=0;entryDy=0;" edge="1" parent="1" source="5KC5ZDpaT7RHDeXgYZa--32" target="5KC5ZDpaT7RHDeXgYZa--18">
          <mxGeometry relative="1" as="geometry" />
        </mxCell>
        <mxCell id="5KC5ZDpaT7RHDeXgYZa--32" value="Добавить элемент в корпус" style="rounded=0;whiteSpace=wrap;html=1;" vertex="1" parent="1">
          <mxGeometry x="680" y="340" width="120" height="40" as="geometry" />
        </mxCell>
        <mxCell id="5KC5ZDpaT7RHDeXgYZa--35" value="" style="ellipse;whiteSpace=wrap;html=1;" vertex="1" parent="1">
          <mxGeometry x="165" y="520" width="30" height="30" as="geometry" />
        </mxCell>
      </root>
    </mxGraphModel>
  </diagram>
</mxfile>
